<mxfile host="65bd71144e" modified="2021-01-08T12:17:16.713Z" agent="5.0 (Macintosh; Intel Mac OS X 11_0_0) AppleWebKit/537.36 (KHTML, like Gecko) Code/1.52.1 Chrome/83.0.4103.122 Electron/9.3.5 Safari/537.36" etag="XPk_ihg-LGKOq7zCxXfy" version="13.10.0" type="embed" pages="3">
    <diagram id="W00fPl9Iou8UbkpBfPBj" name="01">
        <mxGraphModel dx="968" dy="680" grid="1" gridSize="10" guides="1" tooltips="1" connect="1" arrows="1" fold="1" page="1" pageScale="1" pageWidth="850" pageHeight="1100" math="0" shadow="0">
            <root>
                <mxCell id="0"/>
                <mxCell id="1" parent="0"/>
                <mxCell id="2" value="Patient&lt;br&gt;" style="shape=umlActor;verticalLabelPosition=bottom;verticalAlign=top;html=1;outlineConnect=0;" parent="1" vertex="1">
                    <mxGeometry x="120" y="240" width="40" height="80" as="geometry"/>
                </mxCell>
                <mxCell id="6" value="" style="rounded=0;whiteSpace=wrap;html=1;" parent="1" vertex="1">
                    <mxGeometry x="200" y="110" width="420" height="390" as="geometry"/>
                </mxCell>
                <mxCell id="7" value="add information" style="ellipse;whiteSpace=wrap;html=1;" parent="1" vertex="1">
                    <mxGeometry x="265" y="160" width="120" height="60" as="geometry"/>
                </mxCell>
                <mxCell id="8" value="" style="endArrow=classic;html=1;entryX=0;entryY=0.5;entryDx=0;entryDy=0;" parent="1" target="7" edge="1">
                    <mxGeometry width="50" height="50" relative="1" as="geometry">
                        <mxPoint x="170" y="280" as="sourcePoint"/>
                        <mxPoint x="300" y="240" as="targetPoint"/>
                    </mxGeometry>
                </mxCell>
                <mxCell id="10" value="checks the appointment file" style="ellipse;whiteSpace=wrap;html=1;" parent="1" vertex="1">
                    <mxGeometry x="450" y="160" width="120" height="60" as="geometry"/>
                </mxCell>
                <mxCell id="11" value="receptionist" style="shape=umlActor;verticalLabelPosition=bottom;verticalAlign=top;html=1;outlineConnect=0;" parent="1" vertex="1">
                    <mxGeometry x="660" y="230" width="40" height="80" as="geometry"/>
                </mxCell>
                <mxCell id="13" value="" style="endArrow=classic;html=1;entryX=1;entryY=0.5;entryDx=0;entryDy=0;" parent="1" target="10" edge="1">
                    <mxGeometry width="50" height="50" relative="1" as="geometry">
                        <mxPoint x="650" y="280" as="sourcePoint"/>
                        <mxPoint x="600" y="280" as="targetPoint"/>
                    </mxGeometry>
                </mxCell>
                <mxCell id="14" value="" style="endArrow=classic;html=1;entryX=1;entryY=0.5;entryDx=0;entryDy=0;" parent="1" target="15" edge="1">
                    <mxGeometry width="50" height="50" relative="1" as="geometry">
                        <mxPoint x="660" y="290" as="sourcePoint"/>
                        <mxPoint x="650" y="390" as="targetPoint"/>
                    </mxGeometry>
                </mxCell>
                <mxCell id="15" value="mails a reminder postcard to each patient two weeks before the appointment" style="ellipse;whiteSpace=wrap;html=1;" parent="1" vertex="1">
                    <mxGeometry x="390" y="300" width="180" height="100" as="geometry"/>
                </mxCell>
                <mxCell id="16" value="calls to schedule a new appointment" style="ellipse;whiteSpace=wrap;html=1;" parent="1" vertex="1">
                    <mxGeometry x="270" y="250" width="120" height="60" as="geometry"/>
                </mxCell>
                <mxCell id="17" value="" style="endArrow=classic;html=1;entryX=0;entryY=0.5;entryDx=0;entryDy=0;" parent="1" target="16" edge="1">
                    <mxGeometry width="50" height="50" relative="1" as="geometry">
                        <mxPoint x="170" y="290" as="sourcePoint"/>
                        <mxPoint x="275" y="200" as="targetPoint"/>
                    </mxGeometry>
                </mxCell>
                <mxCell id="18" value="change an existing appointment" style="ellipse;whiteSpace=wrap;html=1;" parent="1" vertex="1">
                    <mxGeometry x="250" y="390" width="120" height="60" as="geometry"/>
                </mxCell>
                <mxCell id="19" value="" style="endArrow=classic;html=1;entryX=0;entryY=0.5;entryDx=0;entryDy=0;" parent="1" target="18" edge="1">
                    <mxGeometry width="50" height="50" relative="1" as="geometry">
                        <mxPoint x="170" y="300" as="sourcePoint"/>
                        <mxPoint x="280" y="290" as="targetPoint"/>
                    </mxGeometry>
                </mxCell>
            </root>
        </mxGraphModel>
    </diagram>
    <diagram id="psxP9A9_-6u5sF6XIo6t" name="02">
        <mxGraphModel dx="968" dy="680" grid="1" gridSize="10" guides="1" tooltips="1" connect="1" arrows="1" fold="1" page="1" pageScale="1" pageWidth="850" pageHeight="1100" math="0" shadow="0">
            <root>
                <mxCell id="GSzJZR8GNZ77pgfCw1cp-0"/>
                <mxCell id="GSzJZR8GNZ77pgfCw1cp-1" parent="GSzJZR8GNZ77pgfCw1cp-0"/>
                <mxCell id="s6xvp_MnNDsP8os030oz-0" value="student" style="shape=umlActor;verticalLabelPosition=bottom;verticalAlign=top;html=1;outlineConnect=0;" parent="GSzJZR8GNZ77pgfCw1cp-1" vertex="1">
                    <mxGeometry x="120" y="240" width="40" height="80" as="geometry"/>
                </mxCell>
                <mxCell id="s6xvp_MnNDsP8os030oz-1" value="" style="rounded=0;whiteSpace=wrap;html=1;" parent="GSzJZR8GNZ77pgfCw1cp-1" vertex="1">
                    <mxGeometry x="200" y="110" width="420" height="490" as="geometry"/>
                </mxCell>
                <mxCell id="s6xvp_MnNDsP8os030oz-2" value="examine the courses for which they are enrolled" style="ellipse;whiteSpace=wrap;html=1;" parent="GSzJZR8GNZ77pgfCw1cp-1" vertex="1">
                    <mxGeometry x="252.5" y="135" width="145" height="80" as="geometry"/>
                </mxCell>
                <mxCell id="s6xvp_MnNDsP8os030oz-3" value="" style="endArrow=classic;html=1;entryX=0;entryY=0.5;entryDx=0;entryDy=0;" parent="GSzJZR8GNZ77pgfCw1cp-1" target="s6xvp_MnNDsP8os030oz-2" edge="1">
                    <mxGeometry width="50" height="50" relative="1" as="geometry">
                        <mxPoint x="170" y="250" as="sourcePoint"/>
                        <mxPoint x="300" y="240" as="targetPoint"/>
                    </mxGeometry>
                </mxCell>
                <mxCell id="s6xvp_MnNDsP8os030oz-4" value="examine the cousese offered" style="ellipse;whiteSpace=wrap;html=1;" parent="GSzJZR8GNZ77pgfCw1cp-1" vertex="1">
                    <mxGeometry x="425" y="140" width="140" height="70" as="geometry"/>
                </mxCell>
                <mxCell id="s6xvp_MnNDsP8os030oz-5" value="staff" style="shape=umlActor;verticalLabelPosition=bottom;verticalAlign=top;html=1;outlineConnect=0;" parent="GSzJZR8GNZ77pgfCw1cp-1" vertex="1">
                    <mxGeometry x="660" y="230" width="40" height="80" as="geometry"/>
                </mxCell>
                <mxCell id="s6xvp_MnNDsP8os030oz-6" value="" style="endArrow=classic;html=1;entryX=1;entryY=0.5;entryDx=0;entryDy=0;" parent="GSzJZR8GNZ77pgfCw1cp-1" target="s6xvp_MnNDsP8os030oz-4" edge="1">
                    <mxGeometry width="50" height="50" relative="1" as="geometry">
                        <mxPoint x="650" y="250" as="sourcePoint"/>
                        <mxPoint x="600" y="280" as="targetPoint"/>
                    </mxGeometry>
                </mxCell>
                <mxCell id="s6xvp_MnNDsP8os030oz-7" value="change the information" style="ellipse;whiteSpace=wrap;html=1;" parent="GSzJZR8GNZ77pgfCw1cp-1" vertex="1">
                    <mxGeometry x="425" y="360" width="140" height="55" as="geometry"/>
                </mxCell>
                <mxCell id="s6xvp_MnNDsP8os030oz-8" value="" style="endArrow=classic;html=1;entryX=1;entryY=0.5;entryDx=0;entryDy=0;" parent="GSzJZR8GNZ77pgfCw1cp-1" target="s6xvp_MnNDsP8os030oz-7" edge="1">
                    <mxGeometry width="50" height="50" relative="1" as="geometry">
                        <mxPoint x="660" y="290" as="sourcePoint"/>
                        <mxPoint x="580" y="206" as="targetPoint"/>
                    </mxGeometry>
                </mxCell>
                <mxCell id="s6xvp_MnNDsP8os030oz-9" value="print a variety of reports about the courses and the students enrolled in them" style="ellipse;whiteSpace=wrap;html=1;" parent="GSzJZR8GNZ77pgfCw1cp-1" vertex="1">
                    <mxGeometry x="404" y="440" width="180" height="90" as="geometry"/>
                </mxCell>
                <mxCell id="s6xvp_MnNDsP8os030oz-10" value="" style="endArrow=classic;html=1;entryX=1;entryY=0.5;entryDx=0;entryDy=0;" parent="GSzJZR8GNZ77pgfCw1cp-1" target="s6xvp_MnNDsP8os030oz-9" edge="1">
                    <mxGeometry width="50" height="50" relative="1" as="geometry">
                        <mxPoint x="660" y="330" as="sourcePoint"/>
                        <mxPoint x="580" y="280" as="targetPoint"/>
                    </mxGeometry>
                </mxCell>
                <mxCell id="s6xvp_MnNDsP8os030oz-11" value="" style="endArrow=classic;html=1;entryX=1;entryY=0.5;entryDx=0;entryDy=0;" parent="GSzJZR8GNZ77pgfCw1cp-1" target="s6xvp_MnNDsP8os030oz-12" edge="1">
                    <mxGeometry width="50" height="50" relative="1" as="geometry">
                        <mxPoint x="650" y="260" as="sourcePoint"/>
                        <mxPoint x="575" y="417.5" as="targetPoint"/>
                    </mxGeometry>
                </mxCell>
                <mxCell id="s6xvp_MnNDsP8os030oz-12" value="add courses" style="ellipse;whiteSpace=wrap;html=1;" parent="GSzJZR8GNZ77pgfCw1cp-1" vertex="1">
                    <mxGeometry x="424" y="220" width="140" height="55" as="geometry"/>
                </mxCell>
                <mxCell id="s6xvp_MnNDsP8os030oz-13" value="add course" style="ellipse;whiteSpace=wrap;html=1;" parent="GSzJZR8GNZ77pgfCw1cp-1" vertex="1">
                    <mxGeometry x="265" y="300" width="120" height="60" as="geometry"/>
                </mxCell>
                <mxCell id="s6xvp_MnNDsP8os030oz-14" value="" style="endArrow=classic;html=1;entryX=0;entryY=0.5;entryDx=0;entryDy=0;" parent="GSzJZR8GNZ77pgfCw1cp-1" target="s6xvp_MnNDsP8os030oz-13" edge="1">
                    <mxGeometry width="50" height="50" relative="1" as="geometry">
                        <mxPoint x="180" y="290" as="sourcePoint"/>
                        <mxPoint x="275" y="200" as="targetPoint"/>
                    </mxGeometry>
                </mxCell>
                <mxCell id="s6xvp_MnNDsP8os030oz-15" value="examine currently available courses" style="ellipse;whiteSpace=wrap;html=1;" parent="GSzJZR8GNZ77pgfCw1cp-1" vertex="1">
                    <mxGeometry x="260" y="370" width="120" height="60" as="geometry"/>
                </mxCell>
                <mxCell id="s6xvp_MnNDsP8os030oz-16" value="" style="endArrow=classic;html=1;entryX=0;entryY=0.5;entryDx=0;entryDy=0;" parent="GSzJZR8GNZ77pgfCw1cp-1" target="s6xvp_MnNDsP8os030oz-15" edge="1">
                    <mxGeometry width="50" height="50" relative="1" as="geometry">
                        <mxPoint x="170" y="300" as="sourcePoint"/>
                        <mxPoint x="255" y="280" as="targetPoint"/>
                    </mxGeometry>
                </mxCell>
                <mxCell id="s6xvp_MnNDsP8os030oz-17" value="remove courses" style="ellipse;whiteSpace=wrap;html=1;" parent="GSzJZR8GNZ77pgfCw1cp-1" vertex="1">
                    <mxGeometry x="425" y="275" width="140" height="55" as="geometry"/>
                </mxCell>
                <mxCell id="s6xvp_MnNDsP8os030oz-18" value="" style="endArrow=classic;html=1;entryX=1;entryY=0.5;entryDx=0;entryDy=0;" parent="GSzJZR8GNZ77pgfCw1cp-1" source="s6xvp_MnNDsP8os030oz-5" target="s6xvp_MnNDsP8os030oz-17" edge="1">
                    <mxGeometry width="50" height="50" relative="1" as="geometry">
                        <mxPoint x="640" y="290" as="sourcePoint"/>
                        <mxPoint x="574.0000000000002" y="257.5" as="targetPoint"/>
                    </mxGeometry>
                </mxCell>
                <mxCell id="s6xvp_MnNDsP8os030oz-19" value="drop course" style="ellipse;whiteSpace=wrap;html=1;" parent="GSzJZR8GNZ77pgfCw1cp-1" vertex="1">
                    <mxGeometry x="260" y="230" width="120" height="60" as="geometry"/>
                </mxCell>
                <mxCell id="s6xvp_MnNDsP8os030oz-20" value="" style="endArrow=classic;html=1;entryX=0;entryY=0.5;entryDx=0;entryDy=0;" parent="GSzJZR8GNZ77pgfCw1cp-1" target="s6xvp_MnNDsP8os030oz-19" edge="1">
                    <mxGeometry width="50" height="50" relative="1" as="geometry">
                        <mxPoint x="180" y="270" as="sourcePoint"/>
                        <mxPoint x="275" y="340" as="targetPoint"/>
                    </mxGeometry>
                </mxCell>
            </root>
        </mxGraphModel>
    </diagram>
    <diagram id="kZzUVstGRmtCNN4vFuag" name="03">
        <mxGraphModel dx="968" dy="1780" grid="1" gridSize="10" guides="1" tooltips="1" connect="1" arrows="1" fold="1" page="1" pageScale="1" pageWidth="850" pageHeight="1100" math="0" shadow="0">
            <root>
                <mxCell id="HtRU_w9mU8jsMC4ir6Fb-0"/>
                <mxCell id="HtRU_w9mU8jsMC4ir6Fb-1" parent="HtRU_w9mU8jsMC4ir6Fb-0"/>
                <mxCell id="UNKGSVLWbgAlVKRBMYpL-0" value="member" style="shape=umlActor;verticalLabelPosition=bottom;verticalAlign=top;html=1;outlineConnect=0;" parent="HtRU_w9mU8jsMC4ir6Fb-1" vertex="1">
                    <mxGeometry x="120" y="240" width="40" height="80" as="geometry"/>
                </mxCell>
                <mxCell id="UNKGSVLWbgAlVKRBMYpL-1" value="" style="rounded=0;whiteSpace=wrap;html=1;" parent="HtRU_w9mU8jsMC4ir6Fb-1" vertex="1">
                    <mxGeometry x="200" y="-160" width="570" height="720" as="geometry"/>
                </mxCell>
                <mxCell id="UNKGSVLWbgAlVKRBMYpL-2" value="adminitrators&lt;br&gt;" style="shape=umlActor;verticalLabelPosition=bottom;verticalAlign=top;html=1;outlineConnect=0;" parent="HtRU_w9mU8jsMC4ir6Fb-1" vertex="1">
                    <mxGeometry x="800" y="200" width="40" height="80" as="geometry"/>
                </mxCell>
                <mxCell id="UNKGSVLWbgAlVKRBMYpL-3" style="edgeStyle=orthogonalEdgeStyle;rounded=0;orthogonalLoop=1;jettySize=auto;html=1;entryX=0.5;entryY=0;entryDx=0;entryDy=0;entryPerimeter=0;" parent="HtRU_w9mU8jsMC4ir6Fb-1" source="UNKGSVLWbgAlVKRBMYpL-4" target="UNKGSVLWbgAlVKRBMYpL-0" edge="1">
                    <mxGeometry relative="1" as="geometry"/>
                </mxCell>
                <mxCell id="UNKGSVLWbgAlVKRBMYpL-4" value="general" style="shape=umlActor;verticalLabelPosition=bottom;verticalAlign=top;html=1;outlineConnect=0;" parent="HtRU_w9mU8jsMC4ir6Fb-1" vertex="1">
                    <mxGeometry x="120" y="70" width="40" height="80" as="geometry"/>
                </mxCell>
                <mxCell id="UNKGSVLWbgAlVKRBMYpL-5" style="edgeStyle=orthogonalEdgeStyle;rounded=0;orthogonalLoop=1;jettySize=auto;html=1;entryX=0;entryY=0.3333333333333333;entryDx=0;entryDy=0;entryPerimeter=0;" parent="HtRU_w9mU8jsMC4ir6Fb-1" source="UNKGSVLWbgAlVKRBMYpL-6" target="UNKGSVLWbgAlVKRBMYpL-0" edge="1">
                    <mxGeometry relative="1" as="geometry">
                        <Array as="points">
                            <mxPoint x="60" y="-60"/>
                            <mxPoint x="60" y="267"/>
                        </Array>
                    </mxGeometry>
                </mxCell>
                <mxCell id="UNKGSVLWbgAlVKRBMYpL-6" value="premium" style="shape=umlActor;verticalLabelPosition=bottom;verticalAlign=top;html=1;outlineConnect=0;" parent="HtRU_w9mU8jsMC4ir6Fb-1" vertex="1">
                    <mxGeometry x="120" y="-100" width="40" height="80" as="geometry"/>
                </mxCell>
                <mxCell id="UNKGSVLWbgAlVKRBMYpL-7" value="visitors" style="shape=umlActor;verticalLabelPosition=bottom;verticalAlign=top;html=1;outlineConnect=0;" parent="HtRU_w9mU8jsMC4ir6Fb-1" vertex="1">
                    <mxGeometry x="120" y="420" width="40" height="80" as="geometry"/>
                </mxCell>
                <mxCell id="UNKGSVLWbgAlVKRBMYpL-8" value="" style="endArrow=classic;html=1;entryX=0;entryY=0.5;entryDx=0;entryDy=0;" parent="HtRU_w9mU8jsMC4ir6Fb-1" target="UNKGSVLWbgAlVKRBMYpL-9" edge="1">
                    <mxGeometry width="50" height="50" relative="1" as="geometry">
                        <mxPoint x="170" y="260" as="sourcePoint"/>
                        <mxPoint x="220" y="210" as="targetPoint"/>
                    </mxGeometry>
                </mxCell>
                <mxCell id="UNKGSVLWbgAlVKRBMYpL-9" value="watch both live and archived TV" style="ellipse;whiteSpace=wrap;html=1;" parent="HtRU_w9mU8jsMC4ir6Fb-1" vertex="1">
                    <mxGeometry x="250" y="180" width="120" height="60" as="geometry"/>
                </mxCell>
                <mxCell id="UNKGSVLWbgAlVKRBMYpL-10" value="" style="endArrow=classic;html=1;entryX=0;entryY=0.5;entryDx=0;entryDy=0;" parent="HtRU_w9mU8jsMC4ir6Fb-1" target="UNKGSVLWbgAlVKRBMYpL-11" edge="1">
                    <mxGeometry width="50" height="50" relative="1" as="geometry">
                        <mxPoint x="170" y="450" as="sourcePoint"/>
                        <mxPoint x="220" y="400" as="targetPoint"/>
                    </mxGeometry>
                </mxCell>
                <mxCell id="UNKGSVLWbgAlVKRBMYpL-11" value="register as a general member." style="ellipse;whiteSpace=wrap;html=1;" parent="HtRU_w9mU8jsMC4ir6Fb-1" vertex="1">
                    <mxGeometry x="250" y="370" width="120" height="60" as="geometry"/>
                </mxCell>
                <mxCell id="UNKGSVLWbgAlVKRBMYpL-12" value="" style="endArrow=classic;html=1;entryX=0;entryY=0.5;entryDx=0;entryDy=0;" parent="HtRU_w9mU8jsMC4ir6Fb-1" target="UNKGSVLWbgAlVKRBMYpL-13" edge="1">
                    <mxGeometry width="50" height="50" relative="1" as="geometry">
                        <mxPoint x="170" y="470" as="sourcePoint"/>
                        <mxPoint x="220" y="490" as="targetPoint"/>
                    </mxGeometry>
                </mxCell>
                <mxCell id="UNKGSVLWbgAlVKRBMYpL-13" value="register as a premium member." style="ellipse;whiteSpace=wrap;html=1;" parent="HtRU_w9mU8jsMC4ir6Fb-1" vertex="1">
                    <mxGeometry x="250" y="460" width="120" height="60" as="geometry"/>
                </mxCell>
                <mxCell id="UNKGSVLWbgAlVKRBMYpL-14" value="" style="endArrow=classic;html=1;entryX=0;entryY=0.5;entryDx=0;entryDy=0;" parent="HtRU_w9mU8jsMC4ir6Fb-1" target="UNKGSVLWbgAlVKRBMYpL-15" edge="1">
                    <mxGeometry width="50" height="50" relative="1" as="geometry">
                        <mxPoint x="170" y="110" as="sourcePoint"/>
                        <mxPoint x="220" y="60" as="targetPoint"/>
                    </mxGeometry>
                </mxCell>
                <mxCell id="UNKGSVLWbgAlVKRBMYpL-15" value="upgrade to premiun member" style="ellipse;whiteSpace=wrap;html=1;" parent="HtRU_w9mU8jsMC4ir6Fb-1" vertex="1">
                    <mxGeometry x="250" y="40" width="120" height="60" as="geometry"/>
                </mxCell>
                <mxCell id="UNKGSVLWbgAlVKRBMYpL-16" value="" style="endArrow=classic;html=1;entryX=0;entryY=0.5;entryDx=0;entryDy=0;" parent="HtRU_w9mU8jsMC4ir6Fb-1" target="UNKGSVLWbgAlVKRBMYpL-17" edge="1">
                    <mxGeometry width="50" height="50" relative="1" as="geometry">
                        <mxPoint x="180" y="270" as="sourcePoint"/>
                        <mxPoint x="230" y="290" as="targetPoint"/>
                    </mxGeometry>
                </mxCell>
                <mxCell id="UNKGSVLWbgAlVKRBMYpL-17" value="remove his/her account permannently" style="ellipse;whiteSpace=wrap;html=1;" parent="HtRU_w9mU8jsMC4ir6Fb-1" vertex="1">
                    <mxGeometry x="260" y="260" width="150" height="60" as="geometry"/>
                </mxCell>
                <mxCell id="UNKGSVLWbgAlVKRBMYpL-18" value="" style="endArrow=open;dashed=1;html=1;dashPattern=1 3;strokeWidth=2;endFill=0;entryX=0;entryY=0.5;entryDx=0;entryDy=0;" parent="HtRU_w9mU8jsMC4ir6Fb-1" target="UNKGSVLWbgAlVKRBMYpL-20" edge="1">
                    <mxGeometry width="50" height="50" relative="1" as="geometry">
                        <mxPoint x="410" y="290" as="sourcePoint"/>
                        <mxPoint x="460" y="240" as="targetPoint"/>
                    </mxGeometry>
                </mxCell>
                <mxCell id="UNKGSVLWbgAlVKRBMYpL-19" value="include" style="edgeLabel;html=1;align=center;verticalAlign=middle;resizable=0;points=[];" parent="UNKGSVLWbgAlVKRBMYpL-18" vertex="1" connectable="0">
                    <mxGeometry x="-0.2" y="3" relative="1" as="geometry">
                        <mxPoint as="offset"/>
                    </mxGeometry>
                </mxCell>
                <mxCell id="UNKGSVLWbgAlVKRBMYpL-20" value="mailing us as account removal form" style="ellipse;whiteSpace=wrap;html=1;" parent="HtRU_w9mU8jsMC4ir6Fb-1" vertex="1">
                    <mxGeometry x="490" y="260" width="150" height="60" as="geometry"/>
                </mxCell>
                <mxCell id="UNKGSVLWbgAlVKRBMYpL-21" value="" style="endArrow=classic;html=1;entryX=0;entryY=0.5;entryDx=0;entryDy=0;" parent="HtRU_w9mU8jsMC4ir6Fb-1" target="UNKGSVLWbgAlVKRBMYpL-22" edge="1">
                    <mxGeometry width="50" height="50" relative="1" as="geometry">
                        <mxPoint x="170" y="-60" as="sourcePoint"/>
                        <mxPoint x="220" y="-110" as="targetPoint"/>
                    </mxGeometry>
                </mxCell>
                <mxCell id="UNKGSVLWbgAlVKRBMYpL-22" value="share their opinions of the TV programs with each other" style="ellipse;whiteSpace=wrap;html=1;" parent="HtRU_w9mU8jsMC4ir6Fb-1" vertex="1">
                    <mxGeometry x="250" y="-140" width="170" height="80" as="geometry"/>
                </mxCell>
                <mxCell id="UNKGSVLWbgAlVKRBMYpL-23" value="" style="endArrow=open;dashed=1;html=1;dashPattern=1 3;strokeWidth=2;endFill=0;entryX=0;entryY=0.5;entryDx=0;entryDy=0;exitX=1;exitY=0.5;exitDx=0;exitDy=0;" parent="HtRU_w9mU8jsMC4ir6Fb-1" source="UNKGSVLWbgAlVKRBMYpL-22" target="UNKGSVLWbgAlVKRBMYpL-25" edge="1">
                    <mxGeometry width="50" height="50" relative="1" as="geometry">
                        <mxPoint x="440" y="-90" as="sourcePoint"/>
                        <mxPoint x="520" y="-90" as="targetPoint"/>
                    </mxGeometry>
                </mxCell>
                <mxCell id="UNKGSVLWbgAlVKRBMYpL-24" value="include" style="edgeLabel;html=1;align=center;verticalAlign=middle;resizable=0;points=[];" parent="UNKGSVLWbgAlVKRBMYpL-23" vertex="1" connectable="0">
                    <mxGeometry x="-0.2" y="3" relative="1" as="geometry">
                        <mxPoint as="offset"/>
                    </mxGeometry>
                </mxCell>
                <mxCell id="UNKGSVLWbgAlVKRBMYpL-25" value="posting their opinion under the video panel" style="ellipse;whiteSpace=wrap;html=1;" parent="HtRU_w9mU8jsMC4ir6Fb-1" vertex="1">
                    <mxGeometry x="510" y="-135" width="170" height="70" as="geometry"/>
                </mxCell>
                <mxCell id="UNKGSVLWbgAlVKRBMYpL-26" value="" style="endArrow=classic;html=1;entryX=0;entryY=0.5;entryDx=0;entryDy=0;" parent="HtRU_w9mU8jsMC4ir6Fb-1" target="UNKGSVLWbgAlVKRBMYpL-27" edge="1">
                    <mxGeometry width="50" height="50" relative="1" as="geometry">
                        <mxPoint x="170" y="-40" as="sourcePoint"/>
                        <mxPoint x="220" y="-20" as="targetPoint"/>
                    </mxGeometry>
                </mxCell>
                <mxCell id="UNKGSVLWbgAlVKRBMYpL-27" value="receive monthly newsletter" style="ellipse;whiteSpace=wrap;html=1;" parent="HtRU_w9mU8jsMC4ir6Fb-1" vertex="1">
                    <mxGeometry x="250" y="-50" width="170" height="60" as="geometry"/>
                </mxCell>
                <mxCell id="UNKGSVLWbgAlVKRBMYpL-28" value="" style="endArrow=classic;html=1;entryX=1;entryY=0.5;entryDx=0;entryDy=0;" parent="HtRU_w9mU8jsMC4ir6Fb-1" target="UNKGSVLWbgAlVKRBMYpL-29" edge="1">
                    <mxGeometry width="50" height="50" relative="1" as="geometry">
                        <mxPoint x="790.0000000000009" y="220" as="sourcePoint"/>
                        <mxPoint x="670" y="170" as="targetPoint"/>
                    </mxGeometry>
                </mxCell>
                <mxCell id="UNKGSVLWbgAlVKRBMYpL-29" value="update the program schedule" style="ellipse;whiteSpace=wrap;html=1;" parent="HtRU_w9mU8jsMC4ir6Fb-1" vertex="1">
                    <mxGeometry x="470" y="-55" width="170" height="70" as="geometry"/>
                </mxCell>
                <mxCell id="UNKGSVLWbgAlVKRBMYpL-30" value="" style="endArrow=classic;html=1;entryX=1;entryY=0.5;entryDx=0;entryDy=0;" parent="HtRU_w9mU8jsMC4ir6Fb-1" target="UNKGSVLWbgAlVKRBMYpL-31" edge="1">
                    <mxGeometry width="50" height="50" relative="1" as="geometry">
                        <mxPoint x="780" y="230" as="sourcePoint"/>
                        <mxPoint x="660" y="265" as="targetPoint"/>
                    </mxGeometry>
                </mxCell>
                <mxCell id="UNKGSVLWbgAlVKRBMYpL-31" value="update the programs as well as to archive programs" style="ellipse;whiteSpace=wrap;html=1;" parent="HtRU_w9mU8jsMC4ir6Fb-1" vertex="1">
                    <mxGeometry x="460" y="40" width="190" height="80" as="geometry"/>
                </mxCell>
                <mxCell id="UNKGSVLWbgAlVKRBMYpL-32" value="" style="endArrow=classic;html=1;entryX=1;entryY=0.5;entryDx=0;entryDy=0;" parent="HtRU_w9mU8jsMC4ir6Fb-1" target="UNKGSVLWbgAlVKRBMYpL-33" edge="1">
                    <mxGeometry width="50" height="50" relative="1" as="geometry">
                        <mxPoint x="790.0000000000009" y="260" as="sourcePoint"/>
                        <mxPoint x="640" y="365" as="targetPoint"/>
                    </mxGeometry>
                </mxCell>
                <mxCell id="UNKGSVLWbgAlVKRBMYpL-33" value="help to monitor the dekivery of newsletter to premium members" style="ellipse;whiteSpace=wrap;html=1;" parent="HtRU_w9mU8jsMC4ir6Fb-1" vertex="1">
                    <mxGeometry x="440" y="140" width="190" height="80" as="geometry"/>
                </mxCell>
            </root>
        </mxGraphModel>
    </diagram>
</mxfile>